<svg xmlns="http://www.w3.org/2000/svg" xmlns:xlink="http://www.w3.org/1999/xlink" width="1500" height="1500" viewBox="0 0 1125 1125"><defs><clipPath id="a"><path d="M440 199h639.719v926H440Zm0 0"/></clipPath><clipPath id="b"><path d="M45.469 0H685v925H45.469Zm0 0"/></clipPath></defs><g clip-path="url(#a)"><path d="M1079.16 1120.867a202876.676 202876.676 0 0 0-89.305-142.16l-44.714-70.914-44.88-70.934-89.906-141.77-84.343-132.796 108.593-159.438 28.59-41.918c9.57-13.953 19.059-27.945 28.692-41.855l57.761-83.437 23.36-33.735-308.024-2.066-6.492 11.597c-9.488 16.989-18.77 34.082-28.133 51.133l-7.007 12.817-6.907 12.875-13.89 25.671-27.453 51.528-13.997 26.578a11342.69 11342.69 0 0 0-16.02-24.266l-16.374-24.492-16.54-24.41-16.534-24.348-16.766-24.242a2882.485 2882.485 0 0 0-34.195-48.14 2.391 2.391 0 0 0-3.274-.856 2.404 2.404 0 0 0-1.11 1.46 2.405 2.405 0 0 0 .251 1.814 2258.278 2258.278 0 0 0 25.883 53.015l13.25 26.332 13.437 26.25 13.54 26.168 13.663 26.086c9.2 17.34 18.38 34.703 27.704 51.98l13.457 24.926 16.023-25.132c10.457-16.43 20.672-32.946 31.008-49.442l30.719-49.601 15.234-24.907 7.61-12.402 7.546-12.402c7.625-12.63 15.278-25.235 22.84-37.887 6.04 0 190.191-.703 197.508-.848l-31.649 50.246c-8.992 14.325-18.152 28.524-27.226 42.805l-27.328 42.746-109.442 170.91-5.707 8.887 5.707 8.27 94.887 138.48 95.094 138.336 47.547 69.137 47.71 69.054a30330.877 30330.877 0 0 0 95.676 137.985c.172.257.391.468.649.64s.539.285.844.344c.304.063.609.063.914 0 .3-.059.582-.176.84-.348.261-.171.476-.382.648-.64a2.303 2.303 0 0 0 .367-1.75 2.284 2.284 0 0 0-.336-.848Zm0 0"/></g><g clip-path="url(#b)"><path d="m658.969 846.406-13.25-26.351-13.418-26.23-13.559-26.165-13.668-26.086c-9.199-17.36-18.355-34.722-27.699-51.98l-13.457-24.95-16.023 25.157c-10.461 16.41-20.672 32.945-31.008 49.437l-30.739 49.606-15.218 24.906-7.625 12.402-7.528 12.403c-7.62 12.633-15.199 25.261-22.738 37.883-6.035 0-190.187.726-197.527.87l31.566-50.245c9.016-14.325 18.172-28.547 27.246-42.805l27.332-42.766 109.438-170.91 5.687-8.887-5.687-8.27-94.887-138.19-95.094-138.048-47.547-68.992-47.754-68.91A30356.17 30356.17 0 0 0 50.16 1.63a2.365 2.365 0 0 0-.637-.625 2.375 2.375 0 0 0-1.715-.355c-.296.054-.574.16-.831.32-.262.168-.48.379-.66.633-.18.253-.305.535-.376.835a2.42 2.42 0 0 0-.027.918c.05.31.156.594.32.86 29.77 47.316 59.536 94.605 89.305 141.87l44.715 70.872 44.879 70.77 89.887 141.5 84.363 132.488-108.531 159.437-28.59 41.918c-9.57 13.93-19.04 27.946-28.692 41.856l-57.761 83.437-23.34 33.735 308.023 2.066 6.512-11.7c9.488-16.987 18.793-34.081 28.137-51.132l7.007-12.816 20.836-38.508 27.309-51.465 13.996-26.559 16.02 24.223 16.375 24.492 16.539 24.434 16.535 24.347 16.765 24.243a2738.372 2738.372 0 0 0 34.196 48.117 2.353 2.353 0 0 0 2.29.926c.288-.051.557-.149.811-.297a2.37 2.37 0 0 0 1.047-1.332 2.37 2.37 0 0 0-.117-1.692 2176.574 2176.574 0 0 0-25.781-53.039Zm0 0"/></g></svg>